<svg width="613" height="542" viewBox="0 0 613 542" fill="none" xmlns="http://www.w3.org/2000/svg">
<g clip-path="url(#clip0_142_698)">
<path d="M536 253C538.875 252.875 538.875 252.875 542 253C544 255 544 255 544 258.875C542.039 272.92 531.176 284.852 521 294C520.01 294.495 520.01 294.495 519 295C518.425 302.609 521.155 309.667 526.015 315.505C530.818 319.122 537.496 318.283 543.217 317.931C549.775 317.561 553.36 318.014 558.475 322.292C563.801 328.254 562.684 336.415 562.52 343.941C562.247 348.18 561.613 350.895 558.75 354.188C556.922 355.793 556.922 355.793 555 357C554.192 357.521 554.192 357.521 553.368 358.052C550.02 359.393 546.755 359.345 543.199 359.371C542.445 359.38 541.69 359.389 540.913 359.398C539.318 359.413 537.724 359.422 536.129 359.426C533.706 359.437 531.285 359.487 528.862 359.537C527.307 359.547 525.753 359.554 524.199 359.559C523.482 359.578 522.766 359.598 522.027 359.618C516.34 359.567 513.092 357.672 509 354C504.931 349.438 505.449 343.934 505.438 338.125C505.401 337.157 505.364 336.189 505.326 335.191C505.289 329.132 506.131 325.691 510.317 321.238C512.198 319.855 513.718 319.407 516 319C515.151 317.658 515.151 317.658 514.285 316.289C505.828 302.52 505.828 302.52 507 295C508.932 290.051 511.759 287.097 515.75 283.75C525.057 275.539 530.085 266.349 535 255C535.33 254.34 535.66 253.68 536 253Z" fill="#6A0B48"/>
<path d="M524.25 115.469C525.026 115.465 525.803 115.461 526.603 115.457C528.236 115.455 529.87 115.462 531.504 115.479C533.993 115.5 536.48 115.479 538.969 115.453C540.563 115.456 542.156 115.461 543.75 115.469C544.856 115.457 544.856 115.457 545.985 115.444C551.13 115.537 554.026 116.783 558 120C562.64 125.151 562.641 129.833 562.562 136.438C562.598 137.811 562.598 137.811 562.635 139.213C562.623 144.641 562.02 148.405 558.448 152.612C555.382 155.551 552.846 156.97 548.529 157.04C546.619 156.954 544.71 156.859 542.8 156.755C533.883 156.15 533.883 156.15 526.036 159.622C522.853 163.708 520.924 168.253 518.97 173.015C517.1 176.841 514.256 179.324 510.562 181.313C504.228 183.012 499.781 181.37 493.879 178.973C485.446 176.124 476.496 176.964 467.721 177.127C466.631 177.138 465.541 177.149 464.418 177.16C463.426 177.177 462.433 177.194 461.411 177.211C459 177 459 177 457 175C456.75 172 456.75 172 457 169C462.091 163.909 471.673 165.704 478.355 165.67C485.633 165.733 491.586 166.334 498.352 169.125C501.643 170.366 501.643 170.366 508 170C510.64 165.38 513.28 160.76 516 156C514.35 155.34 512.7 154.68 511 154C505.744 148.306 505.767 143.557 505.688 136.188C505.658 135.298 505.629 134.407 505.6 133.49C505.545 127.815 506.045 124.388 510 120C514.677 116.214 518.381 115.404 524.25 115.469Z" fill="#6A0C48"/>
<path d="M457.375 296.028C465.79 299.146 475.114 298.005 483.924 297.785C485.059 297.771 486.194 297.757 487.363 297.742C488.397 297.72 489.432 297.698 490.497 297.676C491.323 297.783 492.149 297.89 493 298C495 301 495 301 494.75 303.563C494 306 494 306 492 308C480.267 310.393 466.148 310.459 454.766 306.754C450.892 305.698 446.991 305.367 443 305C441.518 307.603 440.039 310.207 438.562 312.813C438.142 313.551 437.721 314.289 437.287 315.049C436.683 316.117 436.683 316.117 436.066 317.207C435.694 317.862 435.323 318.516 434.94 319.191C433.864 321.146 433.864 321.146 433 324C434.052 324.227 435.104 324.454 436.187 324.688C440.193 325.829 442.279 327.826 445 331C445.532 331.593 446.065 332.186 446.613 332.797C449.3 337.065 448.58 342.148 448 347C445.525 352.236 441.215 356.393 436 359C430.384 359.31 424.767 359.357 419.144 359.405C417.265 359.427 415.386 359.461 413.508 359.508C410.793 359.575 408.079 359.602 405.363 359.621C404.531 359.649 403.698 359.677 402.84 359.706C397.278 359.686 394.429 358.425 390.397 354.584C386.949 350.675 386.625 348.205 386.746 343.215C387.302 338.364 390.378 335.056 394 332C394.99 332 395.98 332 397 332C397.075 331.263 397.149 330.526 397.226 329.766C398.201 326.28 399.636 325.073 402.375 322.75C403.166 322.064 403.958 321.379 404.773 320.672C407 319 407 319 410 318C410.907 318.188 411.815 318.377 412.75 318.571C416.781 319.259 419.101 319.346 423 318C426.742 313.8 429.02 308.662 431.465 303.645C437.133 292.332 446.399 290.991 457.375 296.028Z" fill="#6A0C47"/>
<path fill-rule="evenodd" clip-rule="evenodd" d="M271.098 35.6914C275.574 37.963 277.297 40.3974 279 45C279.417 48.9298 279.38 52.8341 279.342 56.7819L279.341 56.8804L279.342 60.4889C279.34 63.7407 279.325 66.992 279.304 70.2437C279.287 73.306 279.284 76.3682 279.281 79.4305V79.4506L279.28 80.4535C279.271 86.892 279.246 93.3304 279.216 99.7688C279.179 107.821 279.163 115.873 279.147 123.926C279.12 137.064 279.067 150.202 279.015 163.34V163.341L279 167H335C334.882 150.815 334.882 150.815 334.73 134.63C334.721 132.595 334.713 130.559 334.707 128.523L334.661 125.345C334.658 118.069 335.596 113.698 340.563 108.125C344.006 105.495 347.278 105.227 351.527 105.445C355.681 106.377 358.444 108.652 361 112C363.206 116.335 363.281 120.403 363.255 125.164L363.266 127.615C363.273 129.368 363.276 131.12 363.274 132.873C363.273 135.658 363.286 138.442 363.303 141.227C363.35 149.144 363.374 157.061 363.381 164.978C363.386 169.827 363.41 174.677 363.446 179.526C363.456 181.363 363.458 183.2 363.453 185.037C363.413 194.068 363.393 198.552 364.317 202.832C365.228 207.052 367.057 211.075 370.688 219.063C377.77 226.041 385.433 226.545 394.962 226.484C401.305 226.275 406.381 225.015 412 222L415 221L415.001 220.999C415.514 220.178 415.79 219.739 416.026 219.28C416.299 218.751 416.522 218.195 417 217L418.268 214.472C422.754 204.388 422.684 195.033 422.604 184.194L422.602 183.91C422.607 181.993 422.615 180.075 422.626 178.157C422.649 173.147 422.645 168.137 422.632 163.127C422.614 155.086 422.624 147.044 422.658 139.003C422.664 136.205 422.651 133.408 422.636 130.611C422.639 128.894 422.643 127.178 422.647 125.461L422.619 123.123C422.666 116.722 424.343 112.859 428.563 108.125C431.99 105.523 435.226 105.175 439.457 105.367C444.006 106.499 446.991 109.527 450 113C451.235 115.47 451.189 117.726 451.136 120.324C451.125 120.843 451.115 121.377 451.114 121.928L451.114 124.087C451.113 126.446 451.106 128.805 451.098 131.164V131.164V131.164C451.096 132.798 451.094 134.432 451.093 136.066C451.09 140.369 451.08 144.673 451.069 148.977C451.059 153.038 451.055 157.1 451.05 161.161L451.049 162.148C451.038 170.766 451.021 179.383 451 188L453 187.359C458.834 185.539 460.787 184.93 462.784 184.709C463.789 184.598 464.805 184.585 466.332 184.566H466.332L469.042 184.532L471.813 184.563L474.725 184.583C487.98 184.881 500.352 189.139 510.309 198.148C522.234 211.203 524.958 226.359 524.227 243.352C523.024 257.405 516.988 269.311 506.297 278.457C492.473 289.556 478.046 290.06 461 289C448.346 286.876 437.552 279.185 430 269C425.112 261.852 422 253.716 422 245L420.242 245.621L417.875 246.438L415.555 247.246C399.155 252.086 374.219 251.126 359 243C347.346 235.539 340.475 226.324 337 213C335.354 205.113 335 198.157 335 190H279L279.438 215.063L279.568 222.938C279.606 225.012 279.645 227.086 279.684 229.16L279.734 232.389C279.837 237.687 280.169 242.757 281 248C281.185 251.516 281.186 255.03 281.187 258.55L281.188 259.375L281.225 262.375C281.253 276.798 276.878 290.52 268 302L266.414 304.082C257.906 314.527 245.171 321.302 232 324C228.528 324.195 225.053 324.191 221.576 324.188C221.009 324.188 220.442 324.187 219.875 324.187L216.57 324.225C199.168 324.256 184.574 318.978 171.781 306.906C156.341 290.516 154.378 272.742 154.664 251.223C155.223 235.31 162.467 220.027 174 209C186.838 198.144 200.424 194.821 216.813 194.813L220.588 194.775C229.098 194.762 236.087 195.418 243.875 199.063L246.117 200.098C247.417 200.721 248.711 201.355 250 202L249.989 199.568C249.901 180.029 249.834 160.491 249.793 140.952C249.772 131.503 249.744 122.054 249.698 112.606C249.658 104.369 249.633 96.1332 249.624 87.8968C249.618 83.5364 249.606 79.1762 249.577 74.8159C249.55 70.7094 249.542 66.6033 249.548 62.4968C249.547 60.992 249.539 59.4871 249.523 57.9824C249.435 48.9364 249.404 45.6829 250.604 42.9753C251.278 41.4546 252.341 40.106 254 38C258.621 33.7864 265.341 33.7938 271.098 35.6914ZM234 222C242.626 227.64 246.925 237.171 249 247C249.398 251.177 249.421 255.307 249.375 259.5L249.41 262.723C249.365 275.135 246.06 284.529 237.457 293.633C230.11 300.212 222.507 300.717 213.176 300.402C206.501 299.922 201.748 297.706 196.984 293.016C188.315 282.743 186.81 271.726 186.75 258.75L186.688 255.434C186.655 248.693 187.386 243.217 190 237L190.848 234.844C193.791 227.624 199.732 223.051 206.188 219C215.804 216.478 225.294 217.115 234 222ZM476.238 203.672L472.313 203.75C465.041 203.836 461.369 204.855 456.074 209.777C449.305 217.031 447.671 223.581 447.401 233.282L447.375 236.625C447.309 243.02 447.58 248.6 449.934 254.602C453.079 261.733 457.752 266.888 465 270C471.587 270.818 478.214 270.74 484.313 267.937C492.091 262.33 496.331 255.447 498 246C499.017 233.304 498.962 221.539 491 211C486.68 206.902 482.235 204.195 476.238 203.672Z" fill="#075A62"/>
<path d="M524.883 187.656C529.612 188.178 530.989 190.424 533.91 193.973C541.416 204.845 546.328 216.904 548 230C549.086 231.313 549.086 231.313 551.723 231.098C552.825 231.086 553.927 231.074 555.062 231.062C556.167 231.053 557.272 231.044 558.41 231.035C559.692 231.018 559.692 231.018 561 231C561.293 230.229 561.585 229.458 561.887 228.664C564.021 223.558 567.077 220.462 572 218C577.261 216.434 583.13 215.763 588.266 217.977C589.738 218.84 591.195 219.73 592.637 220.645C595.275 222.158 597.854 223.019 600.75 223.938C606.67 225.983 609 228.486 612.094 233.922C613.695 237.595 613.624 241.081 613 245C610.698 250.623 607.36 254.087 602 257C598.177 258.274 594.556 258.182 590.57 258.203C589.743 258.209 588.916 258.215 588.063 258.22C586.313 258.23 584.563 258.236 582.813 258.24C580.142 258.25 577.472 258.281 574.801 258.312C573.099 258.319 571.397 258.324 569.695 258.328C568.899 258.34 568.103 258.353 567.283 258.366C561.72 258.343 558.647 257.123 554.262 253.605C552.654 251.56 552.292 249.857 551.812 247.312C551.654 246.504 551.495 245.696 551.332 244.863C551.222 244.248 551.113 243.634 551 243C549.989 242.835 548.979 242.67 547.938 242.5C542.688 240.906 539.688 237.703 537 233C535.518 228.34 534.477 223.639 533.434 218.867C531.346 209.889 526.534 201.534 520 195C519.812 192.562 519.812 192.562 520 190C522 188 522 188 524.883 187.656Z" fill="#690D48"/>
<path fill-rule="evenodd" clip-rule="evenodd" d="M86.535 194.541L82.7499 194.562C64.8959 194.273 50.2557 198.811 37.1249 211.25C25.7873 223.239 20.2682 238.812 20.4139 255.156C20.4582 257.212 20.4999 259.266 20.4989 261.322C20.4432 278.18 24.595 293.749 36.2577 306.461C49.7459 319.168 64.3346 324.034 82.5245 324.412L85.8124 324.438C95.02 324.529 103.4 323.386 112.094 320.243C123.221 315.573 133.227 308.785 138.234 297.5C139.593 293.063 140.122 288.244 138 284C136.471 282.718 135.533 281.931 134.459 281.444C132.753 280.67 130.705 280.651 125.402 280.602C121.832 281.194 119.961 283.034 117.465 285.543C110.956 292.551 103.273 299.236 93.8241 301.609C85.1044 302.815 76.3021 303.264 68.6874 298.438C60.1063 292.577 56.3957 285.144 54.4403 275.136L53.9218 272.207C53.6126 270.472 53.3047 268.736 52.9999 267C61.7563 267.084 70.5127 267.153 79.2694 267.195L80.3227 267.2C84.443 267.218 88.5632 267.237 92.6834 267.275C97.0564 267.319 101.429 267.358 105.802 267.373C107.472 267.377 109.142 267.383 110.812 267.391C111.371 267.398 111.924 267.406 112.47 267.415C122.659 267.57 130.726 267.693 138.976 260.352C141.287 256.525 141.55 254.287 141.488 249.914L141.375 247.375C141.372 247.208 141.369 247.042 141.367 246.876C141.294 242.461 141.226 238.287 140 234C134.079 217.314 125.059 207.11 109.152 199.324L106 198C99.5207 195.171 93.5846 194.589 86.535 194.541ZM109.484 237.363C106.915 230.188 103.613 224.201 97 220C87.1414 214.822 72.5434 214.276 64 222C56.5418 230.182 53 237.966 53 249H110C110 248.261 110.008 247.52 110.017 246.777C110.052 243.621 110.088 240.449 109.484 237.363Z" fill="#085B62"/>
<path d="M235.438 394.438C240.311 395.507 242.972 399.799 245.613 403.785C246.52 405.207 247.419 406.633 248.313 408.062C249.203 409.471 250.095 410.878 250.988 412.285C251.451 413.015 251.913 413.745 252.389 414.497C255.528 419.374 258.769 424.184 262 429C262.015 428.077 262.029 427.153 262.044 426.202C262.105 422.774 262.18 419.347 262.263 415.92C262.296 414.437 262.324 412.954 262.347 411.471C262.38 409.338 262.432 407.207 262.488 405.074C262.515 403.791 262.541 402.508 262.568 401.186C263 398 263 398 264.337 396.042C266 395 266 395 269.125 395.25C272 396 272 396 273 397C273.109 398.518 273.149 400.042 273.161 401.564C273.171 402.535 273.18 403.506 273.19 404.507C273.195 405.564 273.199 406.622 273.203 407.711C273.209 408.79 273.215 409.869 273.22 410.981C273.23 413.269 273.236 415.557 273.24 417.846C273.25 421.353 273.281 424.86 273.313 428.367C273.319 430.586 273.324 432.805 273.328 435.023C273.341 436.077 273.353 437.13 273.366 438.215C273.363 439.192 273.36 440.17 273.357 441.177C273.362 442.468 273.362 442.468 273.368 443.786C272.917 446.501 272.182 447.367 270 449C267.188 449.625 267.188 449.625 264 449C259.307 444.734 255.919 439.075 252.563 433.75C252.124 433.063 251.685 432.376 251.233 431.668C249.816 429.449 248.408 427.224 247 425C245.718 422.984 244.435 420.968 243.152 418.953C242.553 418.011 241.953 417.069 241.336 416.099C240.895 415.406 240.454 414.714 240 414C239.986 414.989 239.971 415.978 239.956 416.998C239.898 420.662 239.821 424.325 239.738 427.989C239.704 429.576 239.676 431.163 239.654 432.75C239.62 435.029 239.568 437.307 239.512 439.586C239.502 440.653 239.502 440.653 239.492 441.742C239.432 443.744 239.432 443.744 239 447C236 449 236 449 233.438 448.75C231 448 231 448 229 446C228.733 444.002 228.733 444.002 228.71 441.522C228.69 440.13 228.69 440.13 228.671 438.71C228.669 437.705 228.666 436.7 228.664 435.664C228.657 434.633 228.651 433.602 228.644 432.54C228.634 430.356 228.629 428.172 228.629 425.988C228.625 422.645 228.589 419.304 228.551 415.961C228.545 413.841 228.541 411.721 228.539 409.602C228.525 408.6 228.51 407.599 228.496 406.568C228.541 399.643 228.541 399.643 230.877 396.373C233 395 233 395 235.438 394.438Z" fill="#6C104B"/>
<path d="M291.47 394.825C295.921 396.306 296.983 397.867 299.48 401.793C300.051 402.668 300.051 402.668 300.632 403.561C301.839 405.424 303.013 407.304 304.187 409.187C304.987 410.434 305.788 411.679 306.592 412.924C308.076 415.227 309.544 417.537 311.005 419.856C312.96 422.936 314.965 425.972 317 429C317.014 428.076 317.029 427.153 317.044 426.202C317.105 422.774 317.179 419.347 317.262 415.92C317.296 414.437 317.324 412.954 317.346 411.471C317.38 409.338 317.432 407.206 317.488 405.074C317.514 403.791 317.541 402.508 317.567 401.186C318 398 318 398 319.337 396.042C321 395 321 395 324.125 395.25C327 396 327 396 328 397C328.109 398.518 328.149 400.041 328.161 401.564C328.171 402.535 328.18 403.506 328.19 404.507C328.194 405.564 328.199 406.621 328.203 407.711C328.209 408.79 328.214 409.869 328.22 410.981C328.23 413.269 328.236 415.557 328.24 417.845C328.25 421.353 328.281 424.86 328.312 428.367C328.319 430.586 328.324 432.804 328.328 435.023C328.34 436.076 328.353 437.13 328.365 438.215C328.362 439.192 328.359 440.17 328.356 441.177C328.362 442.468 328.362 442.468 328.367 443.785C327.917 446.501 327.174 447.358 325 449C322.25 449.75 322.25 449.75 319 449C312.633 442.506 307.985 434.06 303.062 426.437C302.276 425.225 301.489 424.014 300.701 422.802C298.796 419.871 296.897 416.936 295 414C294.98 414.989 294.96 415.978 294.94 416.997C294.864 420.661 294.775 424.325 294.682 427.989C294.644 429.576 294.609 431.163 294.578 432.75C294.532 435.029 294.474 437.307 294.414 439.586C294.397 440.653 294.397 440.653 294.379 441.742C294.228 446.772 294.228 446.772 292 449C289.562 449.375 289.562 449.375 287 449C284.381 446.21 283.622 444.286 283.596 440.494C283.583 439.61 283.57 438.725 283.557 437.814C283.56 436.866 283.563 435.918 283.566 434.941C283.561 433.96 283.556 432.979 283.55 431.968C283.544 429.894 283.545 427.82 283.554 425.747C283.562 422.577 283.534 419.409 283.502 416.24C283.5 414.224 283.501 412.207 283.504 410.191C283.493 409.245 283.481 408.299 283.47 407.325C283.513 403.198 283.731 400.539 285.593 396.8C288 395 288 395 291.47 394.825Z" fill="#6C104B"/>
<path d="M548.969 465.551C552 466 552 466 553.844 467.668C554.39 468.499 554.937 469.331 555.5 470.188C556.16 471.167 556.82 472.147 557.5 473.156C557.879 473.74 558.258 474.324 558.649 474.926C560.284 477.435 561.954 479.92 563.625 482.406C567.104 487.59 570.559 492.791 574 498C574.02 497.102 574.04 496.203 574.06 495.278C574.138 491.949 574.225 488.621 574.317 485.292C574.356 483.851 574.391 482.41 574.422 480.968C574.468 478.898 574.526 476.828 574.586 474.758C574.617 473.511 574.649 472.265 574.681 470.981C575 468 575 468 577 466C579.5 465.75 579.5 465.75 582 466C584.459 468.459 584.252 469.132 584.259 472.51C584.265 473.444 584.271 474.379 584.278 475.341C584.274 476.353 584.27 477.364 584.266 478.406C584.269 479.96 584.269 479.96 584.271 481.545C584.273 483.737 584.269 485.929 584.261 488.122C584.25 491.486 584.261 494.85 584.274 498.215C584.272 500.341 584.27 502.467 584.266 504.594C584.27 505.605 584.274 506.617 584.278 507.659C584.272 508.593 584.265 509.528 584.259 510.49C584.257 511.315 584.256 512.139 584.254 512.989C584 515 584 515 582 517C579.313 517.625 579.313 517.625 576 517C569.62 512.101 565.64 503.877 561.527 497.098C558.816 492.644 555.919 488.32 553 484C552.98 484.929 552.96 485.857 552.94 486.814C552.862 490.255 552.775 493.695 552.683 497.135C552.644 498.625 552.61 500.115 552.578 501.604C552.533 503.744 552.475 505.884 552.414 508.023C552.383 509.312 552.351 510.6 552.319 511.927C552 515 552 515 550 517C547.5 517.25 547.5 517.25 545 517C542.564 514.564 542.745 513.937 542.725 510.598C542.716 509.687 542.706 508.776 542.697 507.837C542.697 506.85 542.698 505.864 542.699 504.848C542.695 503.837 542.691 502.826 542.686 501.784C542.681 499.643 542.68 497.502 542.684 495.361C542.688 492.079 542.664 488.799 542.639 485.518C542.636 483.44 542.636 481.363 542.637 479.285C542.628 478.301 542.618 477.316 542.609 476.302C542.615 475.388 542.621 474.473 542.628 473.531C542.627 472.727 542.627 471.923 542.626 471.094C543.323 467.194 545.199 466.121 548.969 465.551Z" fill="#6A0B48"/>
<path d="M553.512 395.722C554.635 395.728 554.635 395.728 555.781 395.734C556.551 395.733 557.32 395.731 558.112 395.729C559.74 395.727 561.367 395.731 562.995 395.739C565.49 395.75 567.985 395.739 570.481 395.727C572.06 395.728 573.639 395.731 575.219 395.734C575.968 395.73 576.717 395.726 577.488 395.722C582.77 395.77 582.77 395.77 585 398C584.445 402.556 584.445 402.556 583 404C581 404.088 578.998 404.107 576.996 404.098C575.781 404.094 574.566 404.091 573.315 404.088C572.035 404.08 570.756 404.071 569.438 404.063C568.154 404.058 566.871 404.054 565.549 404.049C562.366 404.037 559.183 404.019 556 404C556 408.29 556 412.58 556 417C558.672 416.965 558.672 416.965 561.398 416.93C563.724 416.911 566.05 416.893 568.375 416.875C569.551 416.858 570.726 416.842 571.938 416.824C573.62 416.815 573.62 416.815 575.336 416.805C576.373 416.794 577.41 416.784 578.478 416.773C581 417 581 417 583 419C582.445 423.556 582.445 423.556 581 425C579.146 425.087 577.289 425.107 575.434 425.098C574.309 425.094 573.184 425.091 572.025 425.088C570.841 425.08 569.657 425.071 568.438 425.063C567.25 425.058 566.062 425.054 564.838 425.049C561.892 425.037 558.946 425.019 556 425C556 429.95 556 434.9 556 440C557.998 439.977 559.996 439.954 562.055 439.93C563.988 439.916 565.92 439.902 567.853 439.89C569.859 439.875 571.865 439.85 573.871 439.824C575.128 439.818 576.385 439.811 577.68 439.805C578.842 439.794 580.005 439.784 581.203 439.773C584 440 584 440 586 442C585.445 446.556 585.445 446.556 584 448C581.357 448.113 578.741 448.164 576.098 448.168C575.305 448.171 574.512 448.175 573.695 448.178C572.015 448.183 570.334 448.186 568.654 448.185C566.077 448.188 563.501 448.206 560.924 448.225C559.294 448.228 557.665 448.23 556.035 448.231C554.874 448.241 554.874 448.241 553.69 448.252C548.229 448.229 548.229 448.229 546 446C545.746 443.951 545.746 443.951 545.741 441.398C545.735 440.444 545.729 439.49 545.722 438.506C545.726 437.473 545.73 436.44 545.734 435.375C545.733 434.317 545.731 433.259 545.729 432.169C545.727 429.93 545.731 427.691 545.739 425.451C545.75 422.014 545.739 418.578 545.727 415.141C545.728 412.969 545.731 410.797 545.734 408.625C545.728 407.075 545.728 407.075 545.722 405.494C545.728 404.539 545.735 403.585 545.741 402.602C545.743 401.759 545.744 400.917 545.746 400.049C546.328 395.355 549.536 395.758 553.512 395.722Z" fill="#690B47"/>
<path d="M277 467C278.511 470.023 278.198 473.174 278.246 476.492C278.279 478.017 278.312 479.542 278.346 481.066C278.393 483.471 278.437 485.877 278.477 488.282C278.516 490.602 278.568 492.922 278.621 495.242C278.629 495.959 278.638 496.676 278.646 497.414C278.736 501.06 278.875 503.957 281 507C283.551 508.275 285.527 508.276 288.375 508.375C289.331 508.424 290.288 508.473 291.273 508.523C294.146 508.226 294.146 508.226 296.137 505.972C298.47 502.249 298.568 499.185 298.539 494.926C298.551 494.161 298.562 493.396 298.575 492.607C298.61 490.176 298.619 487.745 298.625 485.312C298.641 482.87 298.663 480.428 298.696 477.985C298.716 476.469 298.725 474.952 298.723 473.435C298.776 468.223 298.776 468.223 301 466C304 465.75 304 465.75 307 466C309.969 468.969 309.364 472.24 309.406 476.227C309.417 477.048 309.429 477.87 309.441 478.716C309.46 480.46 309.473 482.203 309.48 483.947C309.5 486.595 309.562 489.24 309.625 491.887C309.807 506.084 309.807 506.084 306.344 511.023C302.401 515.011 298.519 517.045 292.906 517.398C291.437 517.406 289.968 517.398 288.5 517.375C287.766 517.387 287.033 517.398 286.277 517.41C281.465 517.384 278.181 516.602 274 514C268.633 508.327 266.535 502.822 266.601 495.082C266.599 494.343 266.596 493.604 266.593 492.842C266.591 491.29 266.596 489.738 266.609 488.186C266.625 485.809 266.609 483.434 266.59 481.057C266.592 479.544 266.596 478.032 266.601 476.52C266.595 475.81 266.589 475.101 266.583 474.37C266.624 471.49 266.697 469.462 268.298 467.018C271.235 465.261 273.821 466.235 277 467Z" fill="#6E134D"/>
<path d="M174.44 466.773C175.911 466.773 177.381 466.785 178.852 466.805C179.626 466.808 180.4 466.81 181.197 466.813C183.673 466.824 186.149 466.85 188.625 466.875C190.302 466.885 191.979 466.894 193.656 466.902C197.771 466.924 201.885 466.959 206 467C206.625 469.375 206.625 469.375 207 472C205 474 205 474 202.386 474.227C201.308 474.217 200.229 474.206 199.117 474.195C197.951 474.189 196.784 474.182 195.582 474.176C194.359 474.159 193.135 474.142 191.875 474.125C190.644 474.116 189.413 474.107 188.145 474.098C185.096 474.074 182.048 474.038 179 474C179 478.29 179 482.58 179 487C180.709 486.977 182.419 486.954 184.18 486.93C186.412 486.911 188.643 486.893 190.875 486.875C192.003 486.858 193.131 486.841 194.293 486.824C195.369 486.818 196.446 486.811 197.555 486.805C198.55 486.794 199.545 486.784 200.57 486.773C203 487 203 487 205 489C205 490.32 205 491.64 205 493C202.391 494.305 200.473 494.113 197.555 494.098C195.94 494.093 195.94 494.093 194.293 494.088C193.165 494.08 192.037 494.071 190.875 494.062C189.739 494.058 188.604 494.053 187.434 494.049C184.622 494.037 181.811 494.019 179 494C179 498.95 179 503.9 179 509C188.24 509 197.48 509 207 509C207.495 511.475 207.495 511.475 208 514C205.487 516.513 203.919 516.256 200.488 516.304C199.365 516.302 199.365 516.302 198.219 516.301C197.065 516.307 197.065 516.307 195.888 516.314C194.26 516.32 192.633 516.32 191.005 516.316C188.51 516.313 186.015 516.336 183.52 516.361C181.94 516.364 180.361 516.364 178.781 516.363C177.658 516.377 177.658 516.377 176.512 516.391C174.408 516.372 174.408 516.372 171 516C168.922 512.883 168.749 512.19 168.741 508.652C168.735 507.778 168.729 506.904 168.722 506.003C168.726 505.062 168.73 504.122 168.734 503.152C168.733 502.185 168.731 501.217 168.729 500.22C168.727 498.175 168.731 496.13 168.739 494.085C168.75 490.946 168.739 487.808 168.727 484.67C168.728 482.685 168.731 480.7 168.734 478.715C168.73 477.772 168.726 476.829 168.722 475.858C168.728 474.987 168.735 474.116 168.741 473.219C168.743 472.45 168.744 471.682 168.746 470.891C169.249 467.146 170.927 467.005 174.44 466.773Z" fill="#6A0B48"/>
<path d="M353.281 468.078C357.133 470.144 359.588 472.382 362 476C362.313 478.723 362.134 481.245 362 484C361 485 361 485 358.688 485.375C356 485 356 485 353.938 482.75C353.298 481.843 352.659 480.935 352 480C348.569 476.367 346.709 474.848 341.688 474.688C338.309 474.731 337.086 474.951 334.063 476.688C330.018 481.223 329.706 485.482 329.688 491.438C329.671 492.715 329.654 493.993 329.637 495.309C330.116 500.179 331.427 503.612 335.125 506.875C339.165 508.456 342.725 508.818 347 508C351.333 504.823 353.53 500.667 356 496C360.75 496.75 360.75 496.75 363 499C363.098 503.898 361.983 506.465 358.875 510.25C353.305 516.033 348.931 517.165 341.063 517.5C333.217 517.325 329.236 515.146 323.75 509.813C318.615 501.56 316.628 493.735 318 484C320.62 475.794 324.802 471.387 332.188 467.188C339.31 464.969 346.4 465.089 353.281 468.078Z" fill="#6C104B"/>
<path d="M402 395C405.273 398.385 406.468 402.674 407.918 407.047C408.18 407.818 408.442 408.589 408.712 409.384C409.544 411.837 410.366 414.294 411.187 416.75C411.751 418.418 412.316 420.086 412.881 421.754C414.261 425.834 415.633 429.916 417 434C419.021 429.412 420.796 424.842 422.375 420.078C422.807 418.793 423.239 417.508 423.672 416.223C424.34 414.227 425.006 412.231 425.666 410.232C426.311 408.282 426.967 406.336 427.625 404.391C428.009 403.236 428.393 402.081 428.789 400.892C429.918 398.197 430.647 396.695 433 395C436.342 395.245 437.605 395.606 440 398C439.702 403.967 438.152 408.836 435.875 414.313C435.24 415.885 434.607 417.458 433.976 419.031C433.651 419.841 433.325 420.651 432.989 421.485C431.009 426.519 429.204 431.62 427.398 436.718C423.615 447.192 423.615 447.192 420 449C417.187 449.375 417.187 449.375 414 449C409.165 445.156 407.723 441.325 406.062 435.625C405.561 434.015 405.056 432.405 404.547 430.797C404.293 429.993 404.04 429.19 403.779 428.362C402.605 424.804 401.231 421.341 399.812 417.875C399.321 416.669 398.83 415.462 398.324 414.219C397.535 412.302 396.747 410.385 395.957 408.469C394.539 404.901 393.339 401.853 394 398C396.131 394.748 398.246 394.343 402 395Z" fill="#6C0F4B"/>
<path fill-rule="evenodd" clip-rule="evenodd" d="M389 414C387.5 407.697 384.227 403.438 379.191 399.441C367.829 391.968 354.059 393.256 343.93 401.758C339.457 406.955 337.51 412.113 337.393 418.953L337.438 421.375C337.533 429.757 338.692 436.16 344.422 442.598C349.693 447.458 354.903 449.172 361.875 449.375C369.528 449.164 376.51 447.643 382 442C388.479 433.349 390.012 424.693 389 414ZM377.117 412.527C374.362 407.647 371.143 405.128 366 403C361.084 402.597 358.684 402.892 354.625 405.562C350.533 409.362 348.327 413.151 347.684 418.754C347.544 425.608 348.14 431.793 353 437C357.442 440.634 360.284 441.539 366 441C370.738 439.421 373.77 436.835 376.313 432.562C379.138 426.367 379.406 418.937 377.117 412.527Z" fill="#6B0D49"/>
<path d="M503.161 395.861C504.024 395.863 504.888 395.865 505.777 395.867C506.659 395.866 507.541 395.865 508.449 395.864C510.318 395.864 512.187 395.865 514.055 395.87C516.922 395.875 519.788 395.87 522.654 395.863C524.466 395.864 526.278 395.865 528.09 395.867C529.382 395.864 529.382 395.864 530.7 395.861C536.77 395.885 536.77 395.885 539 397C539.125 399.875 539.125 399.875 539 403C537 405 537 405 533.742 405.195C532.466 405.172 531.19 405.149 529.875 405.125C527.953 405.098 527.953 405.098 525.992 405.07C524.511 405.035 524.511 405.035 523 405C523.016 406.191 523.031 407.382 523.048 408.608C523.102 413.029 523.136 417.449 523.165 421.87C523.18 423.783 523.2 425.696 523.226 427.608C523.263 430.359 523.28 433.109 523.293 435.859C523.308 436.714 523.324 437.568 523.34 438.448C523.342 444.363 523.342 444.363 521.638 447.54C520 449 520 449 517.5 449.5C515 449 515 449 513.362 447.54C511.307 443.708 511.629 440.14 511.707 435.859C511.711 434.977 511.716 434.095 511.72 433.186C511.737 430.374 511.774 427.562 511.813 424.75C511.828 422.841 511.841 420.932 511.854 419.023C511.887 414.349 511.938 409.674 512 405C511.013 405.012 510.025 405.023 509.008 405.035C507.726 405.044 506.445 405.053 505.125 405.062C503.849 405.074 502.573 405.086 501.258 405.098C498 405 498 405 496 404C495.958 401.667 495.959 399.333 496 397C497.892 395.108 500.644 395.871 503.161 395.861Z" fill="#6B0E4A"/>
<path fill-rule="evenodd" clip-rule="evenodd" d="M534 483C531.95 476.313 527.177 470.781 521 467.5C511.559 463.815 500.829 464.638 493 471C487.678 475.815 485.337 481.032 484.73 488.168C484.607 497.351 486.167 504.531 492.519 511.609C498.719 517.433 505.391 517.419 513.511 517.336C520.188 516.693 524.541 513.855 529 509C534.966 501.134 534.963 492.441 534 483ZM523.305 482.816C521.123 478.554 518.275 476.016 514 474C508.687 473.174 504.211 473.391 500 477C496.804 480.96 495.507 483.832 495.502 488.971L495.563 491.063C495.493 497.846 497.075 501.452 501.125 506.813C505.055 509.803 508.218 509.627 513 509C517.476 507.508 519.866 505.623 522.25 501.563C524.968 495.718 525.262 488.962 523.305 482.816Z" fill="#6C0F4A"/>
<path d="M427.559 466.832C428.418 466.829 429.278 466.825 430.163 466.822C431.985 466.817 433.806 466.814 435.628 466.814C438.422 466.812 441.216 466.794 444.01 466.775C445.776 466.772 447.542 466.77 449.309 466.769C450.568 466.759 450.568 466.759 451.853 466.748C457.771 466.771 457.771 466.771 460 469C459.75 471.562 459.75 471.562 459 474C456.116 475.442 453.583 475.094 450.375 475.062C449.186 475.053 447.998 475.044 446.773 475.035C445.858 475.023 444.943 475.012 444 475C444.016 476.13 444.031 477.26 444.048 478.425C444.102 482.621 444.136 486.818 444.165 491.015C444.18 492.831 444.2 494.647 444.226 496.463C444.263 499.074 444.28 501.685 444.293 504.297C444.308 505.107 444.324 505.918 444.34 506.753C444.341 510.097 444.248 512.541 442.638 515.512C441 517 441 517 438.5 517.5C436 517 436 517 434.362 515.512C432.383 511.861 432.63 508.342 432.707 504.297C432.711 503.459 432.716 502.621 432.72 501.758C432.737 499.088 432.774 496.419 432.812 493.75C432.828 491.937 432.841 490.125 432.854 488.312C432.887 483.875 432.938 479.437 433 475C431.645 475.035 431.645 475.035 430.262 475.07C429.082 475.088 427.903 475.106 426.688 475.125C424.93 475.16 424.93 475.16 423.137 475.195C420 475 420 475 417 473C418.297 465.774 420.755 466.841 427.559 466.832Z" fill="#6E124D"/>
<path d="M525.75 327.602C526.732 327.597 526.732 327.597 527.733 327.593C529.115 327.591 530.497 327.596 531.879 327.609C533.993 327.625 536.105 327.609 538.219 327.59C539.563 327.592 540.906 327.596 542.25 327.602C543.472 327.605 544.694 327.608 545.953 327.612C549 328 549 328 550.897 329.308C552.742 332.139 552.431 335.237 552.375 338.5C552.387 339.177 552.398 339.854 552.41 340.551C552.381 345.415 552.381 345.415 550.897 347.692C548.05 349.655 545.678 349.389 542.25 349.398C541.596 349.401 540.941 349.404 540.267 349.407C538.885 349.409 537.503 349.404 536.121 349.391C534.007 349.375 531.895 349.391 529.781 349.41C528.438 349.408 527.094 349.404 525.75 349.398C524.528 349.395 523.306 349.392 522.047 349.388C519 349 519 349 517.103 347.692C515.258 344.861 515.569 341.763 515.625 338.5C515.613 337.823 515.602 337.146 515.59 336.449C515.619 331.585 515.619 331.585 517.103 329.308C519.95 327.345 522.322 327.611 525.75 327.602Z" fill="#A40ABA"/>
<path d="M525.496 125.602C526.777 125.598 528.058 125.594 529.377 125.59C530.377 125.599 530.377 125.599 531.397 125.609C533.427 125.625 535.456 125.609 537.486 125.59C539.409 125.596 539.409 125.596 541.371 125.602C543.134 125.607 543.134 125.607 544.931 125.612C548.272 126.034 549.687 126.579 552 129C552.381 131.666 552.516 133.848 552.438 136.5C552.445 137.177 552.452 137.854 552.459 138.551C552.425 141.242 552.393 143.398 550.895 145.692C548.05 147.656 545.677 147.389 542.25 147.398C541.596 147.401 540.941 147.404 540.267 147.407C538.885 147.409 537.503 147.404 536.121 147.391C534.007 147.375 531.895 147.391 529.781 147.41C528.438 147.408 527.094 147.404 525.75 147.398C524.528 147.395 523.306 147.392 522.047 147.388C519 147 519 147 517.103 145.692C515.258 142.861 515.569 139.763 515.625 136.5C515.613 135.823 515.602 135.146 515.59 134.449C515.619 129.577 515.619 129.577 517.119 127.308C519.897 125.376 522.14 125.611 525.496 125.602Z" fill="#D8E20C"/>
<path fill-rule="evenodd" clip-rule="evenodd" d="M234.24 466.551L230.688 466.625C229.809 466.626 228.773 466.554 227.663 466.478C222.769 466.14 216.433 465.703 215.746 470.935L215.741 473.326L215.722 476.036L215.734 478.969C215.731 481.004 215.728 483.039 215.727 485.074C215.739 488.294 215.75 491.513 215.739 494.733C215.731 496.831 215.727 498.929 215.729 501.027L215.734 504.031L215.722 506.964L215.741 509.674C215.744 510.989 215.745 511.581 215.788 512.17C215.823 512.651 215.886 513.13 216 514C217.044 515.044 217.543 515.543 218.145 515.819C218.695 516.071 219.332 516.135 220.55 516.259L223.742 516.266L227.223 516.273L230.875 516.25L234.504 516.273L237.992 516.266H238.027C241.089 516.259 243.385 516.254 246.223 515.081C252.071 511.523 255.984 507.622 258 501C259.169 490.623 259.353 481.004 252.707 472.527C246.745 467.193 242.103 466.524 234.24 466.551ZM242.46 476.209C240.162 475 237.227 475 226 475V508H241C244.966 505.356 246.64 502.467 248 498C248.773 490.62 248.914 484.488 245 478C244.007 477.216 243.273 476.637 242.46 476.209Z" fill="#6A0C48"/>
<path d="M421 329C423.438 330.438 423.438 330.438 425 332C425 332.66 425 333.32 425 334C425.687 334.038 426.374 334.075 427.082 334.114C427.983 334.179 428.884 334.245 429.813 334.313C431.153 334.4 431.153 334.4 432.52 334.489C435.35 335.072 436.301 335.697 438 338C438.5 340.875 438.5 340.875 438 344C435.274 347.555 433.817 348.866 429.343 349.6C427.944 349.612 426.544 349.597 425.145 349.559C424.402 349.557 423.659 349.554 422.894 349.552C421.331 349.542 419.769 349.52 418.206 349.487C415.81 349.438 413.415 349.426 411.018 349.42C409.497 349.406 407.977 349.39 406.457 349.371C405.739 349.366 405.022 349.361 404.282 349.355C399.233 349.234 399.233 349.234 397 347C396.938 344.563 396.938 344.563 398 342C399.134 341.546 400.269 341.093 401.438 340.625C405.363 339.335 405.363 339.335 406.438 335.313C406.623 334.22 406.809 333.126 407 332C407.66 332 408.32 332 409 332C409 331.34 409 330.68 409 330C413.332 327.768 416.29 327.887 421 329Z" fill="#EFB209"/>
<path d="M585 228C587.053 229.601 589.057 231.268 591 233C593.04 233.499 593.04 233.499 595.188 233.625C599 234 599 234 601 235.125C602.661 238.24 602.484 240.551 602 244C599.193 247.001 597.538 247.929 593.435 248.47C592.078 248.476 590.72 248.46 589.363 248.426C588.643 248.423 587.922 248.419 587.18 248.416C585.664 248.406 584.149 248.386 582.634 248.357C580.31 248.313 577.987 248.295 575.662 248.283C574.187 248.27 572.713 248.255 571.238 248.238C570.195 248.227 570.195 248.227 569.13 248.216C564.237 248.119 564.237 248.119 562 247C561.957 245.334 561.959 243.666 562 242C563 241 563 241 565.563 240.938C566.367 240.958 567.171 240.979 568 241C568.17 240.397 568.34 239.794 568.516 239.172C571.333 229.881 574.819 226.055 585 228Z" fill="#0BE0C6"/>
<path d="M213.125 395.313C216 396 216 396 217 397C217.109 398.554 217.149 400.114 217.161 401.672C217.171 402.666 217.18 403.661 217.19 404.685C217.195 405.768 217.199 406.85 217.203 407.965C217.209 409.069 217.215 410.172 217.22 411.309C217.23 413.649 217.236 415.988 217.24 418.328C217.25 421.919 217.281 425.509 217.313 429.1C217.319 431.367 217.324 433.635 217.328 435.902C217.341 436.983 217.353 438.063 217.366 439.176C217.363 440.174 217.36 441.171 217.357 442.199C217.36 443.08 217.364 443.961 217.368 444.868C217.246 445.572 217.125 446.275 217 447C214 449 214 449 211.438 448.75C209 448 209 448 207 446C206.739 443.913 206.739 443.913 206.725 441.307C206.716 440.332 206.706 439.358 206.697 438.354C206.697 437.299 206.698 436.244 206.699 435.156C206.695 434.076 206.691 432.996 206.686 431.884C206.681 429.597 206.68 427.311 206.684 425.024C206.688 421.514 206.664 418.006 206.639 414.496C206.636 412.279 206.636 410.061 206.637 407.844C206.628 406.789 206.618 405.733 206.609 404.646C206.615 403.672 206.621 402.697 206.628 401.693C206.627 400.833 206.627 399.973 206.626 399.087C206.749 398.399 206.873 397.71 207 397C210 395 210 395 213.125 395.313Z" fill="#670744"/>
<path d="M471 465.75C474 466 474 466 476 468C476.254 469.967 476.254 469.967 476.259 472.402C476.265 473.313 476.271 474.224 476.278 475.163C476.274 476.15 476.27 477.136 476.266 478.152C476.268 479.163 476.27 480.174 476.271 481.216C476.273 483.357 476.269 485.498 476.261 487.639C476.25 490.921 476.261 494.201 476.273 497.482C476.272 499.56 476.27 501.637 476.266 503.715C476.27 504.699 476.274 505.684 476.278 506.698C476.272 507.612 476.265 508.527 476.259 509.469C476.256 510.675 476.256 510.675 476.254 511.906C476 514 476 514 474 517C471 517.375 471 517.375 468 517C465.893 513.839 465.748 513.079 465.741 509.469C465.735 508.554 465.729 507.64 465.722 506.698C465.726 505.714 465.73 504.729 465.734 503.715C465.733 502.703 465.731 501.691 465.729 500.648C465.727 498.509 465.731 496.369 465.739 494.23C465.75 490.947 465.739 487.664 465.727 484.381C465.728 482.305 465.731 480.229 465.734 478.152C465.73 477.166 465.726 476.179 465.722 475.163C465.728 474.252 465.735 473.341 465.741 472.402C465.743 471.598 465.744 470.795 465.746 469.967C466.201 466.442 467.644 466.03 471 465.75Z" fill="#6A0C48"/>
<path fill-rule="evenodd" clip-rule="evenodd" d="M478.688 406.312C476.899 401.422 475.017 398.379 471 395C468.428 394.697 466.641 394.487 465.127 395.033C461.685 396.273 459.65 401.42 452.988 418.267C452.116 420.488 451.242 422.707 450.355 424.922C449.766 426.39 449.181 427.86 448.6 429.331L447.766 431.449C445.834 436.245 444.334 440.796 444 446C446.395 448.394 447.658 448.755 451 449L454 446L457 436L479 437L480 440C480.145 440.366 480.286 440.728 480.424 441.085C481.771 444.556 482.923 447.527 486.562 449.125C487.561 449.074 488.151 449.043 488.705 448.888C489.504 448.664 490.229 448.18 492 447C492.877 440.74 491.207 436.256 488.749 430.523C487.818 428.432 486.898 426.337 485.988 424.237L484.605 421.039C483.371 418.208 482.15 415.381 481.018 412.507L480.176 410.273C479.677 408.954 479.18 407.634 478.688 406.312ZM469 407H467C466.421 408.679 465.844 410.358 465.271 412.039L464.562 414.125L463.865 416.141L463.191 418.133C462.844 419.149 462.609 419.834 462.413 420.53C462.005 421.967 461.758 423.451 461 428H476C475.495 425.982 474.987 423.961 474.336 421.985L473.59 419.891L472.779 417.605L471.938 415.25C470.96 412.499 469.981 409.749 469 407Z" fill="#6C0F4A"/>
<path fill-rule="evenodd" clip-rule="evenodd" d="M402.375 478.75C400.381 473.451 398.514 469.699 394 466C391.423 465.697 389.658 465.489 388.174 466.039C384.953 467.232 383.053 471.994 377.027 487.092C376.137 489.335 375.244 491.577 374.334 493.812C373.734 495.288 373.138 496.767 372.549 498.247L371.703 500.379C370.119 504.229 369.027 507.652 368.706 511.852C368.86 513.505 368.934 514.29 369.258 514.952C369.551 515.552 370.05 516.05 371 517C372.313 517.096 372.953 517.143 373.593 517.141C374.202 517.139 374.811 517.092 376 517C376.268 516.732 376.473 516.527 376.655 516.305C377.235 515.594 377.587 514.697 379.062 510.938L381 506L402 505C402 505.871 402 506.363 402.09 506.838C402.208 507.452 402.476 508.038 403.094 509.383L404.5 512.125C405.33 513.752 406.162 515.378 407 517L409.375 517.125C410.645 517.065 411.3 517.034 411.865 516.791C412.468 516.532 412.967 516.033 414 515C414.247 513.023 414.421 511.627 414.368 510.241C414.242 506.92 412.814 503.649 407.969 492.543C406.966 490.257 405.988 487.971 405.066 485.651L404.156 483.301C403.562 481.784 402.968 480.267 402.375 478.75ZM392 478H390C389.495 479.191 389.118 480.078 388.771 480.976C387.757 483.601 386.993 486.323 384 497H398C398 493.169 397.293 490.814 395.867 487.316L395 485.25C394.007 482.83 393.009 480.413 392 478Z" fill="#6C0E4A"/>
<path d="M210 395C210.66 395.33 211.32 395.66 212 396C211.514 396.399 211.028 396.798 210.527 397.209C208.581 399.491 208.607 400.685 208.568 403.655C208.548 404.596 208.528 405.537 208.508 406.506C208.501 407.518 208.495 408.531 208.488 409.574C208.47 410.613 208.452 411.652 208.434 412.723C208.38 416.044 208.346 419.366 208.312 422.688C208.279 424.938 208.245 427.189 208.209 429.439C208.124 434.96 208.056 440.48 208 446C207.67 446 207.34 446 207 446C206.924 439.058 206.871 432.117 206.835 425.175C206.82 422.812 206.8 420.449 206.774 418.086C206.737 414.695 206.72 411.305 206.707 407.914C206.691 406.853 206.676 405.791 206.66 404.697C206.66 403.717 206.66 402.736 206.659 401.725C206.653 400.859 206.646 399.993 206.639 399.101C206.758 398.407 206.877 397.714 207 397C207.99 396.34 208.98 395.68 210 395Z" fill="#79245A"/>
</g>
<defs>
<clipPath id="clip0_142_698">
<rect width="613" height="542" fill="white"/>
</clipPath>
</defs>
</svg>
